{"title":"Tangled Ever After[2012]BRrip[Ac3-5.1]-=[CaLvIn]=-","uid":7158419,"size":70510027,"categoryP":"video","categoryS":"movie_clips","magnet":"?xt=urn:btih:20011600831af9d3f131b2331ed792605743107b&amp;dn=Tangled+Ever+After%5B2012%5DBRrip%5BAc3-5.1%5D-%3D%5BCaLvIn%5D%3D-&amp;tr=udp%3A%2F%2Ftracker.openbittorrent.com%3A80&amp;tr=udp%3A%2F%2Fopen.demonii.com%3A1337&amp;tr=udp%3A%2F%2Ftracker.coppersurfer.tk%3A6969&amp;tr=udp%3A%2F%2Fexodus.desync.com%3A6969","seeders":0,"leechers":0,"uploader":"rhythmtheguru","files":8,"time":1333526974,"description":"General\nComplete name                  : Tangled Ever After[2012]BRrip[Ac3-5.1]-=[CaLvIn]=-\nFormat                           : AVI\nFormat/Info                      : Audio Video Interleave\nFile size                        : 63.9 MiB\nDuration                         : 6mn 27s\nOverall bit rate                 : 1 384 Kbps\nWriting application              : VirtualDubMod 1.5.10.3 | www.virtualdub-fr.org || (build 2550/release)\nWriting library                  : VirtualDubMod build 2550/release\n\nVideo\nID                               : 0\nFormat                           : MPEG-4 Visual\nFormat profile                   : Advanced Simple@L5\nFormat settings, BVOP            : 2\nFormat settings, QPel            : No\nFormat settings, GMC             : No warppoints\nFormat settings, Matrix          : Default (H.263)\nCodec ID                         : XVID\nCodec ID/Hint                    : XviD\nDuration                         : 6mn 27s\nBit rate                         : 1 180 Kbps\nWidth                            : 720 pixels\nHeight                           : 400 pixels\nDisplay aspect ratio             : 16:9\nFrame rate                       : 30.000 fps\nColor space                      : YUV\nChroma subsampling               : 4:2:0\nBit depth                        : 8 bits\nScan type                        : Progressive\nCompression mode                 : Lossy\nBits/(Pixel*Frame)               : 0.137\nStream size                      : 54.5 MiB (85%)\nWriting library                  : XviD 1.2.1 (UTC 2008-12-04)\n\nAudio\nID                               : 1\nFormat                           : AC-3\nFormat/Info                      : Audio Coding 3\nMode extension                   : CM (complete main)\nCodec ID                         : 2000\nDuration                         : 6mn 26s\nBit rate mode                    : Constant\nBit rate                         : 192 Kbps\nChannel(s)                       : 6 channels\nChannel positions                : Front: L C R, Side: L R, LFE\nSampling rate                    : 48.0 KHz\nBit depth                        : 16 bits\nCompression mode                 : Lossy\nStream size                      : 8.85 MiB (14%)\nAlignment                        : Split accross interleaves\nInterleave, duration             : 33 ms (1.00 video frame)\nInterleave, preload duration     : 500 ms\n\n\nScreens :-\n\nIn The Torrent Itself","torrent":{"xt":"urn:btih:20011600831af9d3f131b2331ed792605743107b","amp;dn":"Tangled+Ever+After%5B2012%5DBRrip%5BAc3-5.1%5D-%3D%5BCaLvIn%5D%3D-","amp;tr":["udp%3A%2F%2Ftracker.openbittorrent.com%3A80","udp%3A%2F%2Fopen.demonii.com%3A1337","udp%3A%2F%2Ftracker.coppersurfer.tk%3A6969","udp%3A%2F%2Fexodus.desync.com%3A6969"],"infoHash":"20011600831af9d3f131b2331ed792605743107b","infoHashBuffer":{"type":"Buffer","data":[32,1,22,0,131,26,249,211,241,49,178,51,30,215,146,96,87,67,16,123]},"announce":[],"urlList":[]}}